<?xml version="1.0" encoding="utf-8"?>
<svg width="136" height="36" viewBox="0 0 136 36" fill="none" xmlns="http://www.w3.org/2000/svg">
  <g transform="matrix(0.06915, 0, 0, 0.06915, -0.242225, 0)" style=""/>
  <g transform="matrix(0.06915, 0, 0, 0.06915, -0.242225, 0)" style=""/>
  <g transform="matrix(0.06915, 0, 0, 0.06915, -0.242225, 0)" style=""/>
  <g transform="matrix(0.06915, 0, 0, 0.06915, -0.242225, 0)" style=""/>
  <g transform="matrix(0.06915, 0, 0, 0.06915, -0.242225, 0)" style=""/>
  <g transform="matrix(0.06915, 0, 0, 0.06915, -0.242225, 0)" style=""/>
  <g transform="matrix(0.06915, 0, 0, 0.06915, -0.242225, 0)" style=""/>
  <g transform="matrix(0.06915, 0, 0, 0.06915, -0.242225, 0)" style=""/>
  <g transform="matrix(0.06915, 0, 0, 0.06915, -0.242225, 0)" style=""/>
  <g transform="matrix(0.06915, 0, 0, 0.06915, -0.242225, 0)" style=""/>
  <g transform="matrix(0.06915, 0, 0, 0.06915, -0.242225, 0)" style=""/>
  <g transform="matrix(0.06915, 0, 0, 0.06915, -0.242225, 0)" style=""/>
  <g transform="matrix(0.06915, 0, 0, 0.06915, -0.242225, 0)" style=""/>
  <g transform="matrix(0.06915, 0, 0, 0.06915, -0.242225, 0)" style=""/>
  <g transform="matrix(0.06915, 0, 0, 0.06915, -0.242225, 0)" style=""/>
  <path d="M 56.128 8.115 L 53.634 10.851 C 52.321 10.073 51.374 9.686 50.802 9.686 C 50.355 9.686 49.973 9.855 49.65 10.191 C 49.33 10.526 49.169 10.923 49.169 11.388 C 49.169 12.304 50.002 13.097 51.662 13.768 C 52.882 14.288 53.804 14.757 54.427 15.177 C 55.05 15.599 55.572 16.182 55.992 16.928 C 56.414 17.673 56.622 18.481 56.622 19.351 C 56.622 20.948 55.979 22.336 54.69 23.517 C 53.398 24.698 51.877 25.288 50.12 25.288 C 48.192 25.288 46.287 24.381 44.409 22.567 L 47.044 19.493 C 48.224 20.712 49.331 21.319 50.36 21.319 C 50.842 21.319 51.305 21.105 51.748 20.677 C 52.193 20.248 52.415 19.795 52.415 19.323 C 52.415 18.35 51.391 17.494 49.341 16.757 C 48.169 16.334 47.337 15.934 46.846 15.562 C 46.355 15.188 45.942 14.644 45.607 13.932 C 45.27 13.217 45.102 12.489 45.102 11.742 C 45.102 10.089 45.642 8.746 46.719 7.717 C 47.796 6.687 49.203 6.172 50.94 6.172 C 53.001 6.172 54.73 6.82 56.128 8.115 Z M 70.678 19.805 L 61.992 19.805 C 62.04 20.589 62.299 21.226 62.765 21.717 C 63.231 22.21 63.778 22.455 64.402 22.455 C 65.517 22.455 66.39 21.949 67.023 20.938 L 70.353 22.043 C 69.115 24.206 67.192 25.288 64.585 25.288 C 62.667 25.288 61.141 24.706 60.008 23.546 C 58.876 22.384 58.308 20.82 58.308 18.855 C 58.308 17.088 58.906 15.605 60.102 14.405 C 61.295 13.207 62.768 12.605 64.514 12.605 C 66.272 12.605 67.739 13.238 68.913 14.497 C 70.09 15.759 70.678 17.336 70.678 19.224 L 70.678 19.805 Z M 62.019 17.368 L 66.924 17.368 C 66.585 15.846 65.804 15.087 64.585 15.087 C 63.887 15.087 63.306 15.283 62.849 15.681 C 62.392 16.078 62.116 16.639 62.019 17.368 Z M 81.321 25.034 L 81.321 22.951 L 81.263 22.951 C 80.697 23.763 80.123 24.351 79.548 24.713 C 78.972 25.078 78.259 25.261 77.409 25.261 C 75.983 25.261 74.769 24.647 73.766 23.418 C 72.765 22.19 72.264 20.698 72.264 18.94 C 72.264 17.202 72.798 15.712 73.866 14.468 C 74.935 13.227 76.2 12.605 77.664 12.605 C 78.362 12.605 78.989 12.763 79.548 13.075 C 80.107 13.384 80.697 13.881 81.321 14.562 L 81.321 12.876 L 84.947 12.876 L 84.947 25.034 L 81.321 25.034 Z M 78.656 16.233 C 77.937 16.233 77.338 16.519 76.857 17.092 C 76.375 17.662 76.135 18.382 76.135 19.252 C 76.135 20.064 76.362 20.719 76.821 21.214 C 77.281 21.711 77.882 21.959 78.627 21.959 C 79.346 21.959 79.96 21.674 80.471 21.101 C 80.98 20.53 81.235 19.837 81.235 19.026 C 81.235 18.269 80.98 17.615 80.471 17.064 C 79.96 16.509 79.356 16.233 78.656 16.233 Z M 88.803 6.429 L 95.166 6.429 C 96.876 6.429 98.253 6.927 99.303 7.922 C 100.351 8.919 100.876 10.23 100.876 11.855 C 100.876 12.922 100.617 13.938 100.103 14.894 C 99.589 15.853 98.813 16.568 97.774 17.041 C 96.732 17.514 95.845 17.761 95.108 17.778 L 92.783 17.837 L 92.783 25.034 L 88.803 25.034 L 88.803 6.429 Z M 92.729 9.772 L 92.729 14.533 L 94.287 14.533 C 94.957 14.533 95.53 14.292 96.007 13.81 C 96.484 13.329 96.724 12.757 96.724 12.096 C 96.724 11.34 96.454 10.755 95.916 10.339 C 95.378 9.922 94.613 9.716 93.62 9.716 L 92.729 9.772 Z M 102.751 18.968 C 102.751 17.088 103.351 15.553 104.55 14.363 C 105.751 13.172 107.29 12.577 109.172 12.577 C 110.92 12.577 112.385 13.185 113.57 14.4 C 114.757 15.613 115.348 17.117 115.348 18.912 C 115.348 20.744 114.757 22.265 113.57 23.475 C 112.385 24.684 110.899 25.288 109.114 25.288 C 107.103 25.288 105.538 24.649 104.424 23.368 C 103.31 22.088 102.751 20.622 102.751 18.968 Z M 111.778 18.968 C 111.778 18.146 111.51 17.429 110.971 16.815 C 110.433 16.201 109.804 15.893 109.087 15.893 C 108.338 15.893 107.698 16.182 107.158 16.757 C 106.622 17.336 106.351 18.024 106.351 18.828 C 106.351 19.706 106.618 20.452 107.152 21.066 C 107.685 21.679 108.329 21.987 109.087 21.987 C 109.804 21.987 110.433 21.688 110.971 21.087 C 111.51 20.488 111.778 19.781 111.778 18.968 Z M 121.067 12.846 L 121.067 14.647 L 121.124 14.647 C 121.482 14.041 121.9 13.563 122.378 13.208 C 122.855 12.853 123.297 12.677 123.704 12.677 C 123.949 12.677 124.171 12.696 124.369 12.733 L 124.369 16.701 C 124.067 16.644 123.769 16.617 123.478 16.617 C 122.73 16.617 122.153 16.878 121.742 17.402 C 121.33 17.927 121.124 18.662 121.124 19.605 L 121.124 25.034 L 117.439 25.034 L 117.439 12.846 L 121.067 12.846 Z M 127.415 8.667 L 131.042 8.667 L 131.042 12.846 L 132.784 12.846 L 132.784 16.176 L 131.042 16.176 L 131.042 25.034 L 127.415 25.034 L 127.415 16.176 L 126.027 16.176 L 126.027 12.846 L 127.415 12.846 L 127.415 8.667 Z" style="fill: rgb(4, 17, 29); white-space: pre;"/>
  <path id="path0" d="M 2.154 8.536 C 2.154 8.568 2.172 8.595 2.193 8.595 C 2.215 8.595 2.233 8.568 2.233 8.536 C 2.233 8.503 2.215 8.477 2.193 8.477 C 2.172 8.477 2.154 8.503 2.154 8.536 M 12.974 22.218 C 10.568 24.615 8.582 26.596 8.56 26.62 C 8.458 26.735 3.581 31.589 2.073 33.077 C -0.237 35.356 -0.249 35.369 -0.25 35.473 L -0.251 35.561 L 8.535 35.561 L 17.321 35.561 L 17.346 35.381 C 17.37 35.205 17.384 17.859 17.36 17.859 C 17.353 17.859 15.379 19.821 12.974 22.218" stroke="none" fill="#2ccce4" fill-rule="evenodd" style=""/>
  <path id="path1" d="M 16.662 8.99 C 14.616 9.165 12.794 9.977 11.306 11.378 C 9.773 12.821 8.86 14.664 8.582 16.874 C 8.524 17.339 8.524 26.573 8.582 26.573 C 8.648 26.573 26.124 9.077 26.124 9.011 C 26.124 8.946 17.395 8.928 16.662 8.99 M 23.246 34.852 C 23.246 34.904 23.272 34.93 23.324 34.93 C 23.377 34.93 23.403 34.904 23.403 34.852 C 23.403 34.799 23.377 34.773 23.324 34.773 C 23.272 34.773 23.246 34.799 23.246 34.852 M -0.803 35.032 C -0.803 35.161 -0.671 35.15 -0.653 35.019 C -0.643 34.951 -0.659 34.93 -0.721 34.93 C -0.783 34.93 -0.803 34.956 -0.803 35.032 M -0.547 35.167 C -0.583 35.226 -0.533 35.285 -0.446 35.285 C -0.396 35.285 -0.369 35.258 -0.369 35.206 C -0.369 35.123 -0.501 35.093 -0.547 35.167 M -1 35.423 C -1 35.544 -0.988 35.561 -0.901 35.561 C -0.815 35.561 -0.803 35.544 -0.803 35.423 C -0.803 35.302 -0.815 35.285 -0.901 35.285 C -0.988 35.285 -1 35.302 -1 35.423 M 16.899 35.657 C 16.899 35.729 16.918 35.752 16.977 35.747 C 17.031 35.743 17.056 35.713 17.056 35.651 C 17.056 35.587 17.033 35.561 16.977 35.561 C 16.92 35.561 16.899 35.587 16.899 35.657 M 17.253 35.659 C 17.253 35.732 17.274 35.758 17.332 35.758 C 17.39 35.758 17.411 35.732 17.411 35.659 C 17.411 35.587 17.39 35.561 17.332 35.561 C 17.274 35.561 17.253 35.587 17.253 35.659" stroke="none" fill="#fbfbfb" fill-rule="evenodd" style=""/>
  <path id="path2" d="M 16.544 0.04 C 16.544 0.065 16.326 0.079 15.971 0.079 C 15.498 0.079 15.394 0.09 15.375 0.138 C 15.357 0.184 15.281 0.198 15.042 0.198 C 14.86 0.198 14.73 0.214 14.73 0.237 C 14.73 0.259 14.618 0.277 14.474 0.277 C 14.329 0.277 14.218 0.294 14.218 0.316 C 14.218 0.338 14.099 0.356 13.942 0.356 C 13.784 0.356 13.666 0.372 13.666 0.394 C 13.666 0.417 13.594 0.434 13.507 0.434 C 13.402 0.434 13.34 0.454 13.325 0.494 C 13.31 0.534 13.247 0.552 13.129 0.552 C 13.034 0.552 12.956 0.57 12.956 0.592 C 12.956 0.614 12.876 0.632 12.779 0.632 C 12.681 0.632 12.601 0.649 12.601 0.671 C 12.601 0.692 12.541 0.71 12.467 0.71 C 12.393 0.71 12.326 0.728 12.319 0.75 C 12.311 0.771 12.23 0.791 12.138 0.795 C 12.028 0.799 11.971 0.82 11.971 0.855 C 11.971 0.888 11.921 0.907 11.833 0.907 C 11.757 0.907 11.694 0.925 11.694 0.946 C 11.694 0.968 11.634 0.986 11.56 0.986 C 11.486 0.986 11.419 1.003 11.412 1.025 C 11.404 1.047 11.35 1.068 11.29 1.073 C 11.231 1.078 11.182 1.105 11.182 1.133 C 11.182 1.164 11.13 1.183 11.044 1.183 C 10.968 1.183 10.906 1.201 10.906 1.223 C 10.906 1.245 10.862 1.262 10.807 1.262 C 10.753 1.262 10.709 1.28 10.709 1.301 C 10.709 1.323 10.656 1.341 10.591 1.341 C 10.525 1.341 10.472 1.359 10.472 1.38 C 10.472 1.402 10.428 1.42 10.374 1.42 C 10.312 1.42 10.275 1.442 10.275 1.479 C 10.275 1.515 10.238 1.538 10.177 1.538 C 10.122 1.538 10.078 1.556 10.078 1.577 C 10.078 1.599 10.042 1.617 9.999 1.617 C 9.956 1.617 9.92 1.635 9.92 1.656 C 9.92 1.678 9.877 1.696 9.825 1.696 C 9.772 1.696 9.724 1.713 9.717 1.735 C 9.709 1.756 9.655 1.778 9.596 1.783 C 9.537 1.788 9.48 1.814 9.469 1.843 C 9.458 1.87 9.418 1.893 9.378 1.893 C 9.339 1.893 9.282 1.928 9.25 1.971 C 9.219 2.015 9.153 2.05 9.104 2.05 C 9.054 2.05 9.014 2.068 9.014 2.09 C 9.014 2.112 8.978 2.13 8.935 2.13 C 8.891 2.13 8.856 2.155 8.856 2.188 C 8.856 2.225 8.819 2.248 8.757 2.248 C 8.703 2.248 8.659 2.265 8.659 2.287 C 8.659 2.309 8.63 2.326 8.594 2.326 C 8.559 2.326 8.489 2.371 8.439 2.425 C 8.388 2.479 8.32 2.524 8.286 2.524 C 8.253 2.524 8.225 2.541 8.225 2.563 C 8.225 2.585 8.185 2.603 8.135 2.603 C 8.086 2.603 8.02 2.638 7.988 2.681 C 7.957 2.724 7.899 2.76 7.86 2.76 C 7.821 2.76 7.779 2.787 7.766 2.819 C 7.754 2.852 7.714 2.878 7.678 2.878 C 7.641 2.878 7.586 2.914 7.555 2.957 C 7.523 3.001 7.457 3.036 7.406 3.036 C 7.355 3.036 7.324 3.053 7.338 3.076 C 7.352 3.098 7.335 3.115 7.301 3.115 C 7.267 3.115 7.239 3.134 7.239 3.157 C 7.239 3.221 7.136 3.312 7.063 3.312 C 7.028 3.312 6.953 3.357 6.898 3.413 C 6.843 3.469 6.773 3.505 6.742 3.493 C 6.712 3.481 6.688 3.491 6.688 3.512 C 6.688 3.565 6.506 3.746 6.452 3.746 C 6.43 3.746 6.411 3.772 6.411 3.805 C 6.411 3.837 6.38 3.864 6.341 3.864 C 6.303 3.864 6.246 3.9 6.215 3.943 C 6.183 3.987 6.143 4.022 6.124 4.022 C 6.085 4.022 5.978 4.123 5.978 4.16 C 5.978 4.209 5.864 4.298 5.801 4.298 C 5.731 4.298 5.544 4.468 5.544 4.533 C 5.544 4.555 5.524 4.574 5.5 4.574 C 5.452 4.574 5.19 4.847 5.19 4.897 C 5.19 4.914 5.171 4.928 5.148 4.928 C 5.095 4.928 4.913 5.11 4.913 5.163 C 4.913 5.186 4.876 5.205 4.831 5.205 C 4.782 5.205 4.74 5.236 4.728 5.283 C 4.716 5.327 4.674 5.362 4.633 5.362 C 4.58 5.362 4.558 5.391 4.558 5.461 C 4.558 5.515 4.544 5.559 4.527 5.559 C 4.477 5.559 4.204 5.822 4.204 5.87 C 4.204 5.895 4.188 5.914 4.169 5.914 C 4.106 5.914 3.849 6.206 3.849 6.278 C 3.849 6.316 3.826 6.348 3.799 6.348 C 3.772 6.348 3.715 6.393 3.674 6.449 C 3.536 6.633 3.466 6.702 3.42 6.702 C 3.396 6.702 3.376 6.739 3.376 6.783 C 3.376 6.827 3.314 6.925 3.238 7.001 C 3.162 7.077 3.1 7.158 3.1 7.181 C 3.1 7.204 3.047 7.272 2.981 7.333 C 2.917 7.394 2.863 7.481 2.863 7.527 C 2.863 7.572 2.844 7.609 2.821 7.609 C 2.751 7.609 2.666 7.717 2.666 7.806 C 2.666 7.852 2.649 7.879 2.627 7.866 C 2.605 7.852 2.587 7.861 2.587 7.886 C 2.587 7.942 2.488 8.043 2.433 8.043 C 2.409 8.043 2.39 8.087 2.39 8.142 C 2.39 8.196 2.372 8.24 2.351 8.24 C 2.329 8.24 2.312 8.276 2.312 8.319 C 2.312 8.362 2.294 8.398 2.272 8.398 C 2.25 8.398 2.233 8.435 2.233 8.479 C 2.233 8.567 2.147 8.674 2.078 8.674 C 2.055 8.674 2.036 8.709 2.036 8.753 C 2.036 8.796 2.018 8.832 1.996 8.832 C 1.974 8.832 1.957 8.876 1.957 8.93 C 1.957 8.984 1.939 9.029 1.917 9.029 C 1.896 9.029 1.877 9.065 1.877 9.11 C 1.877 9.197 1.793 9.305 1.723 9.305 C 1.699 9.305 1.681 9.34 1.681 9.383 C 1.681 9.427 1.663 9.462 1.641 9.462 C 1.619 9.462 1.602 9.507 1.602 9.561 C 1.602 9.615 1.584 9.659 1.562 9.659 C 1.541 9.659 1.523 9.693 1.523 9.734 C 1.523 9.775 1.497 9.819 1.464 9.831 C 1.431 9.844 1.404 9.89 1.404 9.934 C 1.404 9.978 1.387 10.014 1.365 10.014 C 1.344 10.014 1.326 10.049 1.326 10.091 C 1.326 10.133 1.308 10.178 1.286 10.192 C 1.265 10.205 1.247 10.25 1.247 10.293 C 1.247 10.335 1.229 10.369 1.208 10.369 C 1.186 10.369 1.168 10.431 1.168 10.507 C 1.168 10.603 1.15 10.645 1.109 10.645 C 1.076 10.645 1.05 10.68 1.05 10.724 C 1.05 10.767 1.032 10.803 1.01 10.803 C 0.989 10.803 0.971 10.847 0.971 10.901 C 0.971 10.955 0.953 11 0.932 11 C 0.91 11 0.892 11.036 0.892 11.079 C 0.892 11.122 0.874 11.157 0.853 11.157 C 0.831 11.157 0.813 11.22 0.813 11.296 C 0.813 11.392 0.795 11.434 0.754 11.434 C 0.713 11.434 0.695 11.475 0.695 11.572 C 0.695 11.647 0.677 11.709 0.656 11.709 C 0.634 11.709 0.616 11.754 0.616 11.808 C 0.616 11.862 0.598 11.907 0.577 11.907 C 0.555 11.907 0.537 11.984 0.537 12.08 C 0.537 12.197 0.518 12.26 0.478 12.276 C 0.445 12.288 0.419 12.342 0.419 12.396 C 0.419 12.449 0.401 12.505 0.38 12.518 C 0.358 12.531 0.34 12.595 0.34 12.66 C 0.34 12.729 0.324 12.768 0.301 12.754 C 0.277 12.739 0.261 12.806 0.261 12.929 C 0.261 13.039 0.244 13.129 0.222 13.129 C 0.2 13.129 0.183 13.208 0.183 13.306 C 0.183 13.437 0.167 13.484 0.123 13.484 C 0.079 13.484 0.064 13.53 0.064 13.661 C 0.064 13.759 0.046 13.839 0.025 13.839 C 0.003 13.839 -0.015 13.918 -0.015 14.016 C -0.015 14.113 -0.032 14.193 -0.054 14.193 C -0.076 14.193 -0.093 14.311 -0.093 14.469 C -0.093 14.627 -0.11 14.745 -0.133 14.745 C -0.155 14.745 -0.172 14.864 -0.172 15.021 C -0.172 15.24 -0.184 15.297 -0.232 15.297 C -0.28 15.297 -0.291 15.363 -0.291 15.652 C -0.291 15.862 -0.307 16.007 -0.33 16.007 C -0.356 16.007 -0.369 19.292 -0.369 25.784 C -0.369 34.448 -0.363 35.561 -0.311 35.561 C -0.275 35.561 -0.251 35.525 -0.25 35.473 C -0.249 35.369 -0.237 35.356 2.073 33.077 C 3.007 32.156 4.844 30.337 6.156 29.036 L 8.541 26.671 L 8.542 21.841 C 8.543 16.784 8.542 16.801 8.716 15.948 C 9.264 13.26 11.326 10.743 13.843 9.691 C 14.591 9.378 15.097 9.225 15.869 9.078 L 16.406 8.975 L 21.25 8.96 C 24.697 8.95 26.108 8.958 26.138 8.988 C 26.169 9.019 24.941 10.266 21.776 13.416 L 17.372 17.802 L 17.37 26.396 C 17.37 31.122 17.361 35.118 17.352 35.276 L 17.334 35.561 L 18.102 35.561 C 18.587 35.561 18.87 35.547 18.87 35.522 C 18.87 35.498 19.027 35.482 19.264 35.482 C 19.588 35.482 19.658 35.471 19.658 35.423 C 19.658 35.376 19.719 35.364 19.974 35.364 C 20.158 35.364 20.289 35.348 20.289 35.325 C 20.289 35.302 20.4 35.285 20.545 35.285 C 20.69 35.285 20.802 35.268 20.802 35.246 C 20.802 35.224 20.907 35.206 21.038 35.206 C 21.169 35.206 21.275 35.189 21.275 35.167 C 21.275 35.145 21.354 35.127 21.452 35.127 C 21.584 35.127 21.629 35.112 21.629 35.069 C 21.629 35.024 21.675 35.009 21.807 35.009 C 21.904 35.009 21.984 34.991 21.984 34.97 C 21.984 34.948 22.064 34.93 22.161 34.93 C 22.259 34.93 22.339 34.912 22.339 34.891 C 22.339 34.869 22.401 34.852 22.477 34.852 C 22.553 34.852 22.615 34.834 22.615 34.812 C 22.615 34.79 22.695 34.773 22.792 34.773 C 22.924 34.773 22.97 34.757 22.97 34.713 C 22.97 34.681 23.005 34.654 23.049 34.654 C 23.092 34.654 23.128 34.637 23.128 34.615 C 23.128 34.593 23.19 34.575 23.266 34.575 C 23.341 34.575 23.403 34.558 23.403 34.536 C 23.403 34.514 23.465 34.497 23.541 34.497 C 23.617 34.497 23.679 34.479 23.679 34.457 C 23.679 34.436 23.742 34.418 23.817 34.418 C 23.914 34.418 23.955 34.4 23.955 34.359 C 23.955 34.326 23.99 34.299 24.034 34.299 C 24.078 34.299 24.113 34.282 24.113 34.26 C 24.113 34.239 24.158 34.221 24.211 34.221 C 24.266 34.221 24.31 34.203 24.31 34.181 C 24.31 34.16 24.372 34.142 24.449 34.142 C 24.544 34.142 24.586 34.124 24.586 34.083 C 24.586 34.05 24.621 34.023 24.665 34.023 C 24.708 34.023 24.744 34.006 24.744 33.984 C 24.744 33.963 24.788 33.945 24.843 33.945 C 24.896 33.945 24.941 33.927 24.941 33.905 C 24.941 33.884 24.976 33.866 25.02 33.866 C 25.063 33.866 25.099 33.849 25.099 33.826 C 25.099 33.805 25.143 33.787 25.197 33.787 C 25.258 33.787 25.296 33.765 25.296 33.728 C 25.296 33.695 25.331 33.669 25.375 33.669 C 25.418 33.669 25.453 33.651 25.453 33.629 C 25.453 33.608 25.498 33.59 25.552 33.59 C 25.606 33.59 25.65 33.572 25.65 33.55 C 25.65 33.529 25.686 33.511 25.729 33.511 C 25.773 33.511 25.808 33.493 25.808 33.472 C 25.808 33.45 25.853 33.432 25.906 33.432 C 25.968 33.432 26.005 33.41 26.005 33.373 C 26.005 33.34 26.04 33.314 26.084 33.314 C 26.128 33.314 26.163 33.296 26.163 33.275 C 26.163 33.253 26.19 33.235 26.222 33.235 C 26.255 33.235 26.281 33.217 26.281 33.196 C 26.281 33.174 26.317 33.156 26.36 33.156 C 26.403 33.156 26.439 33.139 26.439 33.117 C 26.439 33.095 26.484 33.077 26.538 33.077 C 26.592 33.077 26.636 33.059 26.636 33.035 C 26.636 32.966 26.743 32.881 26.83 32.881 C 26.876 32.881 26.912 32.863 26.912 32.841 C 26.912 32.819 26.948 32.801 26.991 32.801 C 27.034 32.801 27.07 32.782 27.07 32.759 C 27.07 32.693 27.175 32.604 27.255 32.604 C 27.295 32.604 27.354 32.569 27.385 32.525 C 27.416 32.482 27.483 32.446 27.532 32.446 C 27.581 32.446 27.621 32.428 27.621 32.405 C 27.621 32.341 27.808 32.171 27.879 32.171 C 27.942 32.171 28.056 32.082 28.056 32.033 C 28.056 31.983 28.169 31.895 28.232 31.895 C 28.302 31.895 28.489 31.725 28.489 31.66 C 28.489 31.637 28.515 31.619 28.548 31.619 C 28.581 31.619 28.607 31.601 28.607 31.579 C 28.607 31.557 28.643 31.54 28.686 31.54 C 28.73 31.54 28.765 31.522 28.765 31.5 C 28.765 31.479 28.784 31.461 28.808 31.461 C 28.853 31.461 28.962 31.364 28.962 31.324 C 28.962 31.283 29.153 31.106 29.197 31.106 C 29.22 31.106 29.238 31.087 29.238 31.064 C 29.238 31.001 29.342 30.909 29.413 30.909 C 29.447 30.909 29.475 30.892 29.475 30.869 C 29.475 30.848 29.494 30.83 29.517 30.83 C 29.562 30.83 29.672 30.733 29.672 30.693 C 29.672 30.661 29.858 30.475 29.89 30.475 C 29.922 30.475 30.027 30.37 30.027 30.337 C 30.027 30.305 30.132 30.2 30.164 30.2 C 30.195 30.2 30.382 30.013 30.382 29.982 C 30.382 29.942 30.491 29.845 30.536 29.845 C 30.56 29.845 30.578 29.809 30.578 29.764 C 30.578 29.682 30.82 29.411 30.893 29.411 C 30.915 29.411 30.934 29.391 30.934 29.367 C 30.934 29.344 30.987 29.275 31.051 29.214 C 31.117 29.153 31.17 29.066 31.17 29.021 C 31.17 28.975 31.188 28.938 31.211 28.938 C 31.283 28.938 31.446 28.747 31.446 28.664 C 31.446 28.619 31.465 28.583 31.487 28.583 C 31.552 28.583 31.722 28.397 31.722 28.326 C 31.722 28.262 31.811 28.149 31.86 28.149 C 31.912 28.149 31.998 28.034 31.998 27.964 C 31.998 27.924 32.034 27.865 32.077 27.834 C 32.12 27.803 32.155 27.737 32.155 27.687 C 32.155 27.638 32.175 27.598 32.198 27.598 C 32.261 27.598 32.353 27.494 32.353 27.423 C 32.353 27.389 32.37 27.361 32.392 27.361 C 32.413 27.361 32.432 27.324 32.432 27.279 C 32.432 27.192 32.517 27.085 32.586 27.085 C 32.61 27.085 32.628 27.044 32.628 26.995 C 32.628 26.946 32.664 26.88 32.708 26.849 C 32.751 26.817 32.787 26.751 32.787 26.702 C 32.787 26.648 32.81 26.611 32.845 26.611 C 32.878 26.611 32.905 26.577 32.905 26.533 C 32.905 26.49 32.923 26.454 32.944 26.454 C 32.966 26.454 32.983 26.41 32.983 26.356 C 32.983 26.302 33.001 26.257 33.023 26.257 C 33.044 26.257 33.062 26.221 33.062 26.178 C 33.062 26.135 33.08 26.099 33.102 26.099 C 33.123 26.099 33.141 26.055 33.141 26.001 C 33.141 25.939 33.163 25.902 33.2 25.902 C 33.233 25.902 33.259 25.867 33.259 25.823 C 33.259 25.78 33.277 25.744 33.299 25.744 C 33.321 25.744 33.338 25.7 33.338 25.646 C 33.338 25.592 33.356 25.547 33.378 25.547 C 33.4 25.547 33.417 25.511 33.417 25.469 C 33.417 25.425 33.435 25.39 33.457 25.39 C 33.478 25.39 33.496 25.345 33.496 25.291 C 33.496 25.23 33.518 25.193 33.555 25.193 C 33.588 25.193 33.614 25.158 33.614 25.114 C 33.614 25.07 33.632 25.035 33.654 25.035 C 33.676 25.035 33.693 24.973 33.693 24.896 C 33.693 24.821 33.711 24.759 33.732 24.759 C 33.754 24.759 33.772 24.715 33.772 24.66 C 33.772 24.599 33.795 24.562 33.831 24.562 C 33.864 24.562 33.89 24.527 33.89 24.483 C 33.89 24.439 33.908 24.404 33.93 24.404 C 33.951 24.404 33.969 24.342 33.969 24.266 C 33.969 24.19 33.987 24.128 34.008 24.128 C 34.03 24.128 34.048 24.066 34.048 23.99 C 34.048 23.914 34.066 23.852 34.087 23.852 C 34.109 23.852 34.127 23.79 34.127 23.714 C 34.127 23.617 34.144 23.576 34.186 23.576 C 34.219 23.576 34.245 23.541 34.245 23.497 C 34.245 23.454 34.263 23.419 34.285 23.419 C 34.306 23.419 34.324 23.356 34.324 23.281 C 34.324 23.205 34.341 23.143 34.364 23.143 C 34.385 23.143 34.403 23.063 34.403 22.965 C 34.403 22.868 34.421 22.787 34.442 22.787 C 34.464 22.787 34.481 22.708 34.481 22.61 C 34.481 22.479 34.497 22.433 34.541 22.433 C 34.582 22.433 34.6 22.391 34.6 22.295 C 34.6 22.219 34.617 22.157 34.639 22.157 C 34.661 22.157 34.679 22.06 34.679 21.94 C 34.679 21.821 34.696 21.724 34.718 21.724 C 34.74 21.724 34.758 21.643 34.758 21.546 C 34.758 21.448 34.775 21.368 34.797 21.368 C 34.819 21.368 34.837 21.263 34.837 21.132 C 34.837 20.948 34.85 20.895 34.896 20.895 C 34.943 20.895 34.954 20.834 34.954 20.58 C 34.954 20.396 34.971 20.265 34.994 20.265 C 35.017 20.265 35.034 20.12 35.034 19.91 C 35.034 19.699 35.05 19.555 35.073 19.555 C 35.099 19.555 35.112 18.937 35.112 17.781 C 35.112 16.625 35.099 16.007 35.073 16.007 C 35.05 16.007 35.034 15.862 35.034 15.652 C 35.034 15.442 35.017 15.297 34.994 15.297 C 34.971 15.297 34.954 15.179 34.954 15.021 C 34.954 14.802 34.942 14.745 34.896 14.745 C 34.849 14.745 34.837 14.688 34.837 14.469 C 34.837 14.311 34.82 14.193 34.797 14.193 C 34.775 14.193 34.758 14.113 34.758 14.016 C 34.758 13.918 34.74 13.839 34.718 13.839 C 34.696 13.839 34.679 13.759 34.679 13.661 C 34.679 13.563 34.661 13.484 34.639 13.484 C 34.617 13.484 34.6 13.404 34.6 13.306 C 34.6 13.174 34.584 13.129 34.541 13.129 C 34.497 13.129 34.481 13.083 34.481 12.951 C 34.481 12.854 34.464 12.774 34.442 12.774 C 34.421 12.774 34.403 12.712 34.403 12.636 C 34.403 12.56 34.385 12.498 34.364 12.498 C 34.341 12.498 34.324 12.445 34.324 12.38 C 34.324 12.314 34.306 12.262 34.285 12.262 C 34.263 12.262 34.245 12.199 34.245 12.124 C 34.245 12.027 34.227 11.986 34.186 11.986 C 34.144 11.986 34.127 11.944 34.127 11.847 C 34.127 11.771 34.109 11.709 34.087 11.709 C 34.066 11.709 34.048 11.647 34.048 11.572 C 34.048 11.495 34.03 11.434 34.008 11.434 C 33.987 11.434 33.969 11.398 33.969 11.355 C 33.969 11.311 33.951 11.276 33.93 11.276 C 33.908 11.276 33.89 11.222 33.89 11.156 C 33.89 11.086 33.866 11.027 33.831 11.014 C 33.799 11.002 33.772 10.949 33.772 10.897 C 33.772 10.845 33.754 10.803 33.732 10.803 C 33.711 10.803 33.693 10.741 33.693 10.665 C 33.693 10.589 33.676 10.527 33.654 10.527 C 33.632 10.527 33.614 10.491 33.614 10.448 C 33.614 10.404 33.588 10.369 33.555 10.369 C 33.518 10.369 33.496 10.332 33.496 10.271 C 33.496 10.216 33.478 10.172 33.457 10.172 C 33.435 10.172 33.417 10.119 33.417 10.054 C 33.417 9.988 33.4 9.935 33.378 9.935 C 33.356 9.935 33.338 9.909 33.338 9.876 C 33.338 9.844 33.321 9.817 33.299 9.817 C 33.277 9.817 33.259 9.782 33.259 9.738 C 33.259 9.695 33.233 9.659 33.2 9.659 C 33.163 9.659 33.141 9.622 33.141 9.561 C 33.141 9.507 33.123 9.462 33.102 9.462 C 33.08 9.462 33.062 9.427 33.062 9.383 C 33.062 9.34 33.044 9.305 33.023 9.305 C 33.001 9.305 32.983 9.26 32.983 9.206 C 32.983 9.152 32.966 9.108 32.944 9.108 C 32.923 9.108 32.905 9.072 32.905 9.029 C 32.905 8.985 32.885 8.95 32.86 8.95 C 32.799 8.95 32.71 8.828 32.709 8.743 C 32.708 8.705 32.69 8.674 32.668 8.674 C 32.646 8.674 32.628 8.629 32.628 8.575 C 32.628 8.521 32.61 8.477 32.586 8.477 C 32.523 8.477 32.432 8.373 32.432 8.302 C 32.432 8.268 32.413 8.24 32.392 8.24 C 32.37 8.24 32.353 8.214 32.353 8.181 C 32.353 8.149 32.335 8.122 32.313 8.122 C 32.292 8.122 32.274 8.086 32.274 8.043 C 32.274 7.999 32.247 7.964 32.215 7.964 C 32.182 7.964 32.155 7.941 32.155 7.914 C 32.155 7.886 32.12 7.838 32.077 7.806 C 32.034 7.775 31.998 7.718 31.998 7.68 C 31.998 7.641 31.98 7.609 31.959 7.609 C 31.937 7.609 31.919 7.565 31.919 7.511 C 31.919 7.457 31.9 7.412 31.878 7.412 C 31.813 7.412 31.643 7.226 31.643 7.155 C 31.643 7.083 31.552 6.979 31.488 6.979 C 31.465 6.979 31.446 6.942 31.446 6.898 C 31.446 6.823 31.286 6.624 31.225 6.624 C 31.182 6.624 31.094 6.492 31.092 6.426 C 31.091 6.393 31.055 6.34 31.012 6.308 C 30.969 6.277 30.934 6.229 30.934 6.201 C 30.934 6.173 30.915 6.151 30.893 6.151 C 30.839 6.151 30.578 5.89 30.578 5.836 C 30.578 5.815 30.552 5.796 30.519 5.796 C 30.487 5.796 30.46 5.761 30.46 5.717 C 30.46 5.664 30.434 5.638 30.382 5.638 C 30.328 5.638 30.303 5.612 30.303 5.556 C 30.303 5.48 30.22 5.362 30.166 5.362 C 30.153 5.362 30.046 5.264 29.93 5.145 C 29.814 5.026 29.69 4.928 29.655 4.928 C 29.621 4.928 29.593 4.902 29.593 4.869 C 29.593 4.837 29.575 4.81 29.552 4.81 C 29.499 4.81 29.238 4.549 29.238 4.496 C 29.238 4.474 29.219 4.455 29.195 4.455 C 29.171 4.455 29.102 4.402 29.041 4.337 C 28.98 4.272 28.893 4.219 28.848 4.219 C 28.786 4.219 28.765 4.194 28.765 4.12 C 28.765 4.048 28.744 4.022 28.686 4.022 C 28.643 4.022 28.607 4.004 28.607 3.982 C 28.607 3.961 28.588 3.943 28.565 3.943 C 28.51 3.943 28.41 3.843 28.41 3.788 C 28.41 3.765 28.375 3.746 28.331 3.746 C 28.288 3.746 28.253 3.728 28.253 3.707 C 28.253 3.685 28.234 3.667 28.21 3.667 C 28.156 3.667 28.056 3.567 28.056 3.513 C 28.056 3.491 28.033 3.481 28.005 3.492 C 27.978 3.502 27.889 3.448 27.808 3.372 C 27.727 3.296 27.642 3.233 27.62 3.233 C 27.597 3.233 27.538 3.189 27.487 3.135 C 27.437 3.08 27.367 3.036 27.331 3.036 C 27.296 3.036 27.267 3.018 27.267 2.997 C 27.267 2.975 27.241 2.957 27.208 2.957 C 27.175 2.957 27.149 2.939 27.149 2.918 C 27.149 2.896 27.113 2.878 27.07 2.878 C 27.026 2.878 26.991 2.852 26.991 2.819 C 26.991 2.784 26.955 2.76 26.901 2.76 C 26.852 2.76 26.786 2.724 26.754 2.681 C 26.723 2.638 26.666 2.603 26.628 2.603 C 26.589 2.603 26.558 2.585 26.558 2.563 C 26.558 2.541 26.531 2.524 26.498 2.524 C 26.466 2.524 26.439 2.497 26.439 2.465 C 26.439 2.432 26.404 2.405 26.36 2.405 C 26.317 2.405 26.281 2.388 26.281 2.366 C 26.281 2.345 26.237 2.326 26.183 2.326 C 26.129 2.326 26.084 2.309 26.084 2.287 C 26.084 2.265 26.049 2.248 26.005 2.248 C 25.962 2.248 25.926 2.23 25.926 2.209 C 25.926 2.188 25.882 2.159 25.828 2.146 C 25.774 2.132 25.729 2.105 25.729 2.085 C 25.729 2.066 25.694 2.05 25.65 2.05 C 25.607 2.05 25.572 2.033 25.572 2.011 C 25.572 1.989 25.535 1.971 25.49 1.971 C 25.403 1.971 25.296 1.887 25.296 1.818 C 25.296 1.795 25.271 1.786 25.242 1.798 C 25.212 1.809 25.16 1.791 25.126 1.757 C 25.093 1.723 25.01 1.696 24.944 1.696 C 24.877 1.696 24.823 1.678 24.823 1.656 C 24.823 1.635 24.787 1.617 24.744 1.617 C 24.7 1.617 24.665 1.599 24.665 1.577 C 24.665 1.556 24.62 1.538 24.566 1.538 C 24.505 1.538 24.468 1.515 24.468 1.479 C 24.468 1.446 24.433 1.42 24.389 1.42 C 24.346 1.42 24.31 1.402 24.31 1.38 C 24.31 1.359 24.248 1.341 24.172 1.341 C 24.096 1.341 24.034 1.323 24.034 1.301 C 24.034 1.28 23.999 1.262 23.955 1.262 C 23.912 1.262 23.876 1.245 23.876 1.223 C 23.876 1.201 23.816 1.183 23.743 1.183 C 23.66 1.183 23.6 1.16 23.586 1.124 C 23.573 1.089 23.514 1.065 23.444 1.065 C 23.378 1.065 23.324 1.047 23.324 1.026 C 23.324 1.004 23.263 0.986 23.186 0.986 C 23.111 0.986 23.049 0.968 23.049 0.946 C 23.049 0.925 23.015 0.907 22.973 0.907 C 22.931 0.907 22.89 0.886 22.882 0.859 C 22.873 0.832 22.831 0.809 22.789 0.807 C 22.53 0.793 22.494 0.785 22.517 0.75 C 22.531 0.726 22.484 0.71 22.4 0.71 C 22.323 0.71 22.26 0.692 22.26 0.671 C 22.26 0.649 22.18 0.632 22.083 0.632 C 21.985 0.632 21.905 0.614 21.905 0.592 C 21.905 0.57 21.827 0.552 21.732 0.552 C 21.614 0.552 21.552 0.534 21.536 0.494 C 21.521 0.455 21.46 0.434 21.357 0.434 C 21.271 0.434 21.189 0.417 21.176 0.394 C 21.163 0.373 21.037 0.356 20.897 0.356 C 20.754 0.356 20.644 0.338 20.644 0.316 C 20.644 0.293 20.525 0.277 20.368 0.277 C 20.21 0.277 20.092 0.259 20.092 0.237 C 20.092 0.214 19.947 0.198 19.737 0.198 C 19.468 0.198 19.382 0.185 19.382 0.145 C 19.382 0.105 19.27 0.091 18.899 0.085 C 18.633 0.08 18.41 0.06 18.403 0.039 C 18.385 -0.014 16.544 -0.013 16.544 0.04" stroke="none" fill="#3874e6" fill-rule="evenodd" style=""/>
</svg>